<svg t="1682409535115" class="icon" viewBox="0 0 1024 1024" version="1.1" xmlns="http://www.w3.org/2000/svg" p-id="1801" width="200" height="200"><path d="M896 346.794667c-0.113778 0 0 0 0 0a19.038815 19.038815 0 0 0-0.18963-2.503111c0-0.075852 0-0.265481-0.113777-0.37926a40.315259 40.315259 0 0 0-2.692741-9.784889v-0.113777c-0.303407-0.796444-0.720593-1.517037-1.137778-2.275556v-0.113778l-1.137778-2.199703c-0.113778-0.113778-0.113778-0.227556-0.227555-0.303408l-1.289482-1.896296c-0.113778-0.113778-0.113778-0.227556-0.227555-0.227556l-1.517037-1.896296c-0.075852-0.075852-0.151704-0.303407-0.37926-0.379259-0.493037-0.606815-0.986074-1.21363-1.592888-1.706667l-0.075852-0.113778-248.111408-248.414814a25.106963 25.106963 0 0 0-1.820444-1.592889c-0.075852-0.075852-0.303407-0.18963-0.379259-0.37926a30.644148 30.644148 0 0 0-1.896297-1.517037l-0.227555-0.075852c-0.568889-0.530963-1.289481-0.910222-1.896297-1.327407l-0.303407-0.18963c-0.682667-0.379259-1.403259-0.910222-2.199704-1.289481l-2.275555-1.137778h-0.113778a28.330667 28.330667 0 0 0-4.93037-1.668741c-1.554963-0.379259-3.147852-0.796444-4.854519-0.986074-0.113778 0-0.303407 0-0.379259-0.113777a30.037333 30.037333 0 0 0-4.323556-0.303408H163.991704a35.991704 35.991704 0 0 0-35.991704 36.02963v823.258074c0 19.911111 16.118519 36.02963 36.02963 36.02963h695.94074c19.949037 0 36.02963-16.118519 36.02963-36.02963V346.794667z m-248.187259-159.895704l125.383111 125.610667h-125.383111V186.898963zM199.983407 887.201185V135.888593h375.845926v212.726518c0 19.873185 16.080593 35.991704 35.953778 35.991704h212.233482v502.708148H199.983407v-0.113778z" fill="#1296db" p-id="1802"></path><path d="M378.804148 603.894519l59.695408-65.801482a36.02963 36.02963 0 0 0-53.399704-48.393481l-80.782222 89.125925A35.915852 35.915852 0 0 0 303.407407 626.081185l80.896 96.483556a35.84 35.84 0 0 0 50.706963 4.513185 36.105481 36.105481 0 0 0 4.47526-50.706963l-60.681482-72.51437z m260.171852-114.157038a36.143407 36.143407 0 0 0-50.858667-2.541037 36.143407 36.143407 0 0 0-2.503111 50.896593l59.695408 65.801482-60.681482 72.438518a35.915852 35.915852 0 0 0 27.572148 59.088593c10.277926 0 20.48-4.399407 27.610074-12.894815l80.896-96.521482a35.915852 35.915852 0 0 0-0.910222-47.293629l-80.782222-89.012148z" fill="#1296db" p-id="1803"></path></svg>